<?xml version="1.0" encoding="UTF-8"?>
<svg version="1.1" xmlns="http://www.w3.org/2000/svg" width="500" height="500">
<path d="M0 0 C1.16273438 0.45117188 2.32546875 0.90234375 3.5234375 1.3671875 C22.04001122 8.92914365 40.11123778 20.4799304 54 35 C54.62519531 35.64195312 55.25039063 36.28390625 55.89453125 36.9453125 C67.30586715 49.0762822 76.2405736 62.81158046 83 78 C83.54269531 79.19882813 84.08539063 80.39765625 84.64453125 81.6328125 C95.66031352 107.45715271 99.74596886 139.67152561 92 167 C91.79068848 167.74604492 91.58137695 168.49208984 91.36572266 169.26074219 C84.30476954 194.01655375 72.7965743 215.22134049 55 234 C54.22914063 234.82371094 53.45828125 235.64742187 52.6640625 236.49609375 C38.24276582 251.45410536 20.92549932 261.76792489 2 270 C1.03707031 270.45117188 0.07414063 270.90234375 -0.91796875 271.3671875 C-27.490639 282.91428577 -59.98339037 283.47586641 -88 278 C-88.73412109 277.86078125 -89.46824219 277.7215625 -90.22460938 277.578125 C-119.78222862 271.82118563 -145.59642604 256.89891272 -167 236 C-168.06927734 235.0409375 -168.06927734 235.0409375 -169.16015625 234.0625 C-195.18791226 210.11910227 -207.54802587 172.52234972 -209.18359375 138.140625 C-209.90201338 98.07816582 -193.51882643 63.27151163 -167 34 C-164.43998917 31.5160734 -161.77141244 29.24210835 -159 27 C-157.87399856 26.00112776 -156.74898991 25.0011352 -155.625 24 C-142.55330224 12.89640056 -126.79645199 4.13359573 -110.625 -1.5 C-109.76156982 -1.80115723 -108.89813965 -2.10231445 -108.00854492 -2.41259766 C-73.22285118 -14.20984379 -34.21492001 -13.38147925 0 0 Z M-137 51 C-137.8765625 51.70898438 -138.753125 52.41796875 -139.65625 53.1484375 C-159.6909781 70.2033168 -175.64021335 97.93713967 -178.72265625 124.03515625 C-180.93232757 155.62411953 -173.95868766 183.72023549 -153 208 C-152.33742188 208.84691406 -151.67484375 209.69382812 -150.9921875 210.56640625 C-148.03450882 214.17941374 -144.56431307 217.00259967 -141 220 C-140.20722656 220.69222656 -139.41445312 221.38445312 -138.59765625 222.09765625 C-114.47128878 242.66855904 -86.62114516 252.22236833 -55.0625 252.25 C-54.02462845 252.25101212 -54.02462845 252.25101212 -52.96578979 252.25204468 C-42.34727596 252.23560093 -32.32195435 251.70596689 -22 249 C-21.01918457 248.75056641 -21.01918457 248.75056641 -20.01855469 248.49609375 C6.66899274 241.55090068 27.07009222 225.42307171 46 206 C42.02807589 206 41.19363663 207.32836753 38.25 209.9375 C13.71960785 230.46556501 -17.53136545 237.8954043 -49 236 C-55.78726481 235.21392392 -62.39965311 233.74020445 -69 232 C-70.1034375 231.71125 -71.206875 231.4225 -72.34375 231.125 C-84.80950669 227.37186896 -96.71654881 220.9184326 -107 213 C-107.82886719 212.39671875 -108.65773438 211.7934375 -109.51171875 211.171875 C-127.93825257 197.28848352 -138.83866022 174.61868709 -143.3125 152.3125 C-145.20495645 138.82874781 -144.77996983 125.09271806 -141 112 C-140.6596875 110.77925781 -140.319375 109.55851562 -139.96875 108.30078125 C-133.161565 85.92446028 -117.83928149 66.41458069 -98 54 C-97.08734375 53.41605469 -96.1746875 52.83210938 -95.234375 52.23046875 C-69.44040407 36.40235023 -37.56226143 31.43824999 -8.0625 38.1875 C15.42305339 44.08408744 35.05112503 55.79432389 52 73 C52 68.85525274 49.78807851 66.97730392 47.1875 64 C46.44197876 63.13713379 46.44197876 63.13713379 45.68139648 62.25683594 C29.47125827 43.70321724 11.28923994 30.79566374 -12 23 C-12.90878906 22.68160156 -13.81757813 22.36320312 -14.75390625 22.03515625 C-56.33189687 8.95663338 -104.41221851 24.41956207 -137 51 Z M-93 68 C-93.7734375 68.55300781 -94.546875 69.10601562 -95.34375 69.67578125 C-105.30866166 77.09827538 -113.64009853 85.68465244 -119 97 C-118.67 97.99 -118.34 98.98 -118 100 C-105.08283982 101.85154403 -105.08283982 101.85154403 -92.92919922 98.75634766 C-89.35207881 95.39715451 -87.01487828 91.44072324 -85 87 C-85 86.34 -85 85.68 -85 85 C-84.41734375 84.74476563 -83.8346875 84.48953125 -83.234375 84.2265625 C-80.78202023 82.88033978 -79.22118753 81.35407228 -77.25 79.375 C-60.15202231 63.93076114 -34.59850746 58.9105116 -12.29199219 59.85205078 C7.18634337 61.10938689 24.57775092 68.13955607 40 80 C40.99 79.505 40.99 79.505 42 79 C25.25488491 60.95941756 2.40073818 49.70916662 -22.24609375 48.68359375 C-47.91177813 48.03480396 -71.87167735 52.61153834 -93 68 Z M-52.4375 81.74609375 C-53.32342797 83.14443838 -54.18149755 84.56114983 -55 86 C-56.61107062 87.55761126 -58.25260332 89.08506148 -59.9375 90.5625 C-60.78183594 91.30886719 -61.62617188 92.05523437 -62.49609375 92.82421875 C-64.10990669 94.22654918 -65.72686445 95.62527274 -67.34765625 97.01953125 C-68.05792969 97.63183594 -68.76820313 98.24414062 -69.5 98.875 C-70.44359375 99.67550781 -70.44359375 99.67550781 -71.40625 100.4921875 C-73.23369102 102.10873629 -73.23369102 102.10873629 -75 105 C-61.14 105.99 -61.14 105.99 -47 107 C-47.33 111.62 -47.66 116.24 -48 121 C-48.07399032 123.67095558 -48.11841912 126.34316098 -48.11352539 129.01513672 C-48.11367142 129.69993103 -48.11381744 130.38472534 -48.1139679 131.090271 C-48.11328783 133.28677894 -48.10558828 135.48319495 -48.09765625 137.6796875 C-48.09578524 139.22909499 -48.09436458 140.77850308 -48.09336853 142.32791138 C-48.08959702 146.35550647 -48.07981433 150.38306401 -48.06866455 154.41064453 C-48.05833331 158.54068494 -48.05384612 162.67073157 -48.04882812 166.80078125 C-48.03818578 174.8672045 -48.02117607 182.93359755 -48 191 C-42.74894558 191.02464928 -37.49792455 191.04283568 -32.24682617 191.05493164 C-30.45905979 191.05997218 -28.67129755 191.06680454 -26.88354492 191.07543945 C-24.31948832 191.0875173 -21.75548603 191.09323094 -19.19140625 191.09765625 C-17.98515343 191.10539818 -17.98515343 191.10539818 -16.75453186 191.11329651 C-14.83598285 191.11349215 -12.91754632 191.06201983 -11 191 C-8.95804431 188.95804431 -9.74109712 184.71516834 -9.68359375 181.90625 C-9.66276733 181.04004532 -9.64194092 180.17384064 -9.6204834 179.28138733 C-9.55317662 176.35435964 -9.49474729 173.42724084 -9.4375 170.5 C-9.41632111 169.49444061 -9.39514221 168.48888123 -9.37332153 167.45285034 C-8.75736637 137.64009564 -8.90673702 107.81729478 -9 78 C-14.4258101 77.80143421 -19.8494835 77.65670475 -25.27807617 77.56054688 C-27.1222011 77.52044666 -28.96607374 77.46594834 -30.80932617 77.39648438 C-42.69586346 76.32595176 -42.69586346 76.32595176 -52.4375 81.74609375 Z M-121 170 C-122.2518232 171.95711804 -122.2518232 171.95711804 -121.46875 174.06640625 C-118.90922711 180.66130596 -115.59345722 185.65351701 -111 191 C-110.08734375 192.12921875 -110.08734375 192.12921875 -109.15625 193.28125 C-92.97969641 212.64007642 -66.61739525 223.02123146 -42.02075195 225.82128906 C-11.53663655 228.51723838 14.57440708 218.07457069 38 199 C40.79245093 196.54182045 40.79245093 196.54182045 43 194 C43 193.01 43 192.02 43 191 C42.41734375 191.42410156 41.8346875 191.84820312 41.234375 192.28515625 C16.61368653 209.89901357 -9.53370878 216.08413001 -39.46313477 211.4765625 C-53.6877353 209.01000947 -65.34040186 203.37842851 -77 195 C-77.69609375 194.50886719 -78.3921875 194.01773438 -79.109375 193.51171875 C-86.89484051 187.45834075 -92.19026245 178.41704071 -97 170 C-104.92 170 -112.84 170 -121 170 Z " fill="#0F0F0F" transform="translate(310,103)"/>
<path d="M0 0 C0.33 0 0.66 0 1 0 C2.86296171 9.12392695 3.35013326 17.95116386 3.3125 27.25 C3.31167419 27.92921509 3.31084839 28.60843018 3.30999756 29.30822754 C3.2404982 54.13925271 3.2404982 54.13925271 -2 62 C-2.09765625 55.84765625 -2.09765625 55.84765625 -2 54 C-1.505 53.505 -1.505 53.505 -1 53 C0.91880484 45.41784045 1.28498215 37.97067977 1.1875 30.1875 C1.18685547 29.19041016 1.18621094 28.19332031 1.18554688 27.16601562 C1.1564815 22.31209854 0.86248571 17.78474216 0 13 C-0.06522873 10.70916711 -0.0858841 8.41664206 -0.0625 6.125 C-0.05347656 4.97257813 -0.04445313 3.82015625 -0.03515625 2.6328125 C-0.02355469 1.76398438 -0.01195312 0.89515625 0 0 Z " fill="#D0D0D0" transform="translate(402,211)"/>
<path d="M0 0 C1.18128238 3.54384715 0.71096378 4.62799738 -0.375 8.125 C-2.93852977 16.39058663 -3.16935433 24.65555645 -3.125 33.25 C-3.12306641 34.16225342 -3.12113281 35.07450684 -3.11914062 36.0144043 C-3.07438809 43.04863193 -2.72725411 50.00017915 -2 57 C-2.66 56.67 -3.32 56.34 -4 56 C-7.65003458 39.55505506 -6.64836626 18.18399078 -2 2 C-1.34 1.34 -0.68 0.68 0 0 Z " fill="#A9A9A9" transform="translate(135,208)"/>
<path d="M0 0 C0.33 0.66 0.66 1.32 1 2 C0.5875 2.37125 0.175 2.7425 -0.25 3.125 C-2.16481121 5.07191893 -2.16481121 5.07191893 -3.9375 7.9375 C-6.74985088 12.11341494 -9.3366314 15.00141346 -14 17 C-12.38750996 13.32177947 -10.10253751 10.46975834 -7.5625 7.375 C-6.78003906 6.41335937 -5.99757812 5.45171875 -5.19140625 4.4609375 C-3 2 -3 2 0 0 Z " fill="#858585" transform="translate(145,136)"/>
<path d="M0 0 C-1.00160156 0.45890625 -2.00320312 0.9178125 -3.03515625 1.390625 C-4.3776804 2.01025153 -5.72012401 2.63005256 -7.0625 3.25 C-8.04766602 3.70052734 -8.04766602 3.70052734 -9.05273438 4.16015625 C-12.43641294 5.72698278 -15.67573348 7.37153995 -18.87109375 9.296875 C-19.90363281 9.85890625 -20.93617188 10.4209375 -22 11 C-22.66 10.67 -23.32 10.34 -24 10 C-4.97584541 -2.48792271 -4.97584541 -2.48792271 0 0 Z " fill="#C5C5C5" transform="translate(196,105)"/>
<path d="M0 0 C-3.53788686 1.95958144 -7.18780601 3.0589088 -11.0625 4.1875 C-12.29097656 4.55230469 -13.51945313 4.91710937 -14.78515625 5.29296875 C-18 6 -18 6 -21 5 C-7.55125285 -0.74031891 -7.55125285 -0.74031891 0 0 Z " fill="#A1A1A1" transform="translate(235,124)"/>
<path d="M0 0 C6.625 -0.25 6.625 -0.25 10 2 C11.71444889 2.43738696 13.44667784 2.80848688 15.1875 3.125 C16.08855469 3.29257812 16.98960937 3.46015625 17.91796875 3.6328125 C18.60503906 3.75398438 19.29210937 3.87515625 20 4 C20 4.33 20 4.66 20 5 C12.88515313 4.6143354 6.64558134 3.60900601 0 1 C0 0.67 0 0.34 0 0 Z " fill="#ADADAD" transform="translate(254,310)"/>
<path d="M0 0 C2.6331038 3.94965569 3.12274339 6.54875885 3.0625 11.1875 C3.05347656 12.08855469 3.04445313 12.98960937 3.03515625 13.91796875 C3.02355469 14.60503906 3.01195313 15.29210937 3 16 C2.67 16 2.34 16 2 16 C0.61470179 10.54538831 -0.2396943 5.63281599 0 0 Z " fill="#959595" transform="translate(103,256)"/>
<path d="M0 0 C0.33 0 0.66 0 1 0 C1.22084624 6.09781001 1.01167675 11.21642935 -1 17 C-1.33 17 -1.66 17 -2 17 C-2.09765625 10.84765625 -2.09765625 10.84765625 -2 9 C-1.67 8.67 -1.34 8.34 -1 8 C-0.76924918 6.65252916 -0.58846937 5.29622435 -0.4375 3.9375 C-0.293125 2.638125 -0.14875 1.33875 0 0 Z " fill="#A6A6A6" transform="translate(402,256)"/>
<path d="M0 0 C0.33 0.66 0.66 1.32 1 2 C0.06553465 4.03144641 -0.93224776 6.03533587 -2 8 C-2.66 8 -3.32 8 -4 8 C-4.66 9.65 -5.32 11.3 -6 13 C-6.33 12.34 -6.66 11.68 -7 11 C-5.8203125 8.65234375 -5.8203125 8.65234375 -4.125 5.9375 C-3.57070312 5.03902344 -3.01640625 4.14054688 -2.4453125 3.21484375 C-1 1 -1 1 0 0 Z " fill="#B0B0B0" transform="translate(125,160)"/>
<path d="M0 0 C0.66 0.33 1.32 0.66 2 1 C0.3125 3.5 0.3125 3.5 -2 6 C-4.75 6.3125 -4.75 6.3125 -7 6 C-4.74259377 3.66475218 -2.7194239 1.81294927 0 0 Z " fill="#777777" transform="translate(339,308)"/>
<path d="M0 0 C0.66 0.99 1.32 1.98 2 3 C1.01 3.33 0.02 3.66 -1 4 C-1.103125 4.7425 -1.20625 5.485 -1.3125 6.25 C-2.04253504 9.17014018 -3.06789398 10.73187554 -5 13 C-4.48474397 7.71862571 -2.74522883 4.42778844 0 0 Z " fill="#A9A9A9" transform="translate(177,193)"/>
<path d="M0 0 C0.556875 0.28875 1.11375 0.5775 1.6875 0.875 C4.08494645 2.0413253 6.51596939 3.0339881 9 4 C9 4.99 9 5.98 9 7 C4.58110387 5.64978174 2.65654657 3.73884332 0 0 Z " fill="#A1A1A1" transform="translate(153,347)"/>
<path d="M0 0 C0.66 0 1.32 0 2 0 C2 0.66 2 1.32 2 2 C2.99 2.33 3.98 2.66 5 3 C5.59732819 5.76264289 6 8.16032769 6 11 C5.18357746 9.73168307 4.37200895 8.46024069 3.5625 7.1875 C3.11003906 6.47980469 2.65757812 5.77210938 2.19140625 5.04296875 C1 3 1 3 0 0 Z " fill="#989898" transform="translate(213,273)"/>
<path d="M0 0 C0.33 0.66 0.66 1.32 1 2 C-0.25 4.5625 -0.25 4.5625 -2 7 C-2.99 7.33 -3.98 7.66 -5 8 C-3.8141763 4.62496331 -2.72426311 2.35277269 0 0 Z " fill="#8C8C8C" transform="translate(186,180)"/>
<path d="M0 0 C0.66 0.33 1.32 0.66 2 1 C0.25 3.0625 0.25 3.0625 -2 5 C-4.25 4.75 -4.25 4.75 -6 4 C-4.02 2.68 -2.04 1.36 0 0 Z " fill="#979797" transform="translate(325,335)"/>
<path d="M0 0 C2.31 0 4.62 0 7 0 C7 0.66 7 1.32 7 2 C7.99 2.33 8.98 2.66 10 3 C8 4 8 4 6.0546875 3.44140625 C5.33539063 3.15136719 4.61609375 2.86132812 3.875 2.5625 C3.15054687 2.27503906 2.42609375 1.98757812 1.6796875 1.69140625 C0.84824219 1.34916016 0.84824219 1.34916016 0 1 C0 0.67 0 0.34 0 0 Z " fill="#8E8E8E" transform="translate(312,156)"/>
<path d="M0 0 C-5.41538462 4.06153846 -5.41538462 4.06153846 -8.375 3.75 C-8.91125 3.5025 -9.4475 3.255 -10 3 C-3.375 -1.125 -3.375 -1.125 0 0 Z " fill="#B4B4B4" transform="translate(227,150)"/>
</svg>
